# xmcd
#
# Track frame offsets:
# 150
# 12836
# 24200
# 39748
# 51678
# 63635
# 75592
# 87711
# 102881
# 113246
# 125392
# 141210
# 155543
# 166124
# 175544
# 186773
# 196490
# 209581
# 221404
# 234792
#
# Disc length: 3264 seconds
#
#
# Revision: 0
# Processed by: cddbd v1.5.2PL0 Copyright (c) Steve Scherf et al.
# Submitted via: FreeRIP 2.944 
#
DISCID=120cbe14
DTITLE=Vários - Baile na Roça
DYEAR=1969
DGENRE=Country
TTITLE0=Mocinhas da Cidade
TTITLE1=Abra a Porta e a Janela
TTITLE2=Cabelo Loiro
TTITLE3=Nao Encosta na Parede
TTITLE4=Rosa
TTITLE5=Casamento de Primos
TTITLE6=Moreninha Linda
TTITLE7=Ciganinha
TTITLE8=Tchau Amor
TTITLE9=Boquinha
TTITLE10=Fazendo Um Ano
TTITLE11=Cabelo Preto
TTITLE12=Baile na Roca
TTITLE13=To Aqui Pra te Ajudar
TTITLE14=Moca na Janela
TTITLE15=Viajante
TTITLE16=Rei dos Pampas
TTITLE17=Menina Cheirosa
TTITLE18=Sofro pelo Cabelo Loiro
TTITLE19=Companheirada
EXTD=
EXTT0=
EXTT1=
EXTT2=
EXTT3=
EXTT4=
EXTT5=
EXTT6=
EXTT7=
EXTT8=
EXTT9=
EXTT10=
EXTT11=
EXTT12=
EXTT13=
EXTT14=
EXTT15=
EXTT16=
EXTT17=
EXTT18=
EXTT19=
PLAYORDER=
